# xmcd CD database file
#
# Track frame offsets:
#	150
#	30237
#	57787
#	83400
#	109835
#	155200
#
# Disc length: 2486 seconds
#
# Revision: 0
# Processed by: cddbd v1.5.1PL0 Copyright (c) Steve Scherf et al.
# Submitted via: CDex 1.51
#
DISCID=3c09b406
DTITLE=Hank Mobley - Mobley's 2nd Message
DYEAR=1956
DGENRE=Jazz
TTITLE0=These Are The Things I Love
TTITLE1=Message From The Border
TTITLE2=Xlento
TTITLE3=The Latest
TTITLE4=I Should Care
TTITLE5=Crazeology
EXTD=YEAR: 1956
EXTT0=
EXTT1=
EXTT2=
EXTT3=
EXTT4=
EXTT5=
PLAYORDER=
